<?xml version="1.0" encoding="utf-8"?>
<!-- Generator: Adobe Illustrator 21.1.0, SVG Export Plug-In . SVG Version: 6.00 Build 0)  -->
<svg version="1.1" id="Layer_1" xmlns="http://www.w3.org/2000/svg" xmlns:xlink="http://www.w3.org/1999/xlink" x="0px" y="0px"
	 viewBox="0 0 782.6 256.2" style="enable-background:new 0 0 782.6 256.2;" xml:space="preserve">
<style type="text/css">
	.st0{fill:#231F20;}
	.st1{fill:#FFFFFF;}
	.st2{fill-rule:evenodd;clip-rule:evenodd;fill:#FCEE23;}
	.st3{fill:#FCEE23;}
</style>
<path class="st0" d="M784.8,158l-0.7-4.5l-0.9-4.5l-0.1-4.6l-0.7-4.5l-0.6-4.5l-0.4-4.5l-0.4-4.6l-0.9-4.5l-0.1-4.7l-0.6-4.6
	l-1.2-4.5l-0.4-4.6l-0.9-4.6l-0.9-4.6l-0.7-3.7l-1.4-3.5l-2.1-3.3l1.5-4.2l0.5-4.4l-0.1-4.4l-0.5-3.8l-0.4-3.8l-0.5-3.8l-0.5-3.3
	l-0.2-3.6l-0.2-3.6l-0.3-4.9l-1.1-4.8l-0.6-4.9l-1.1-4.8l-0.8-4.7l-2.2-4.2l-2.5-4.1l-3-3.8l-3.9-2.8l-4.1-2.5l-3.8-2l-4.1-1.5
	l-4.3-0.7l-4.3-0.4L731,2.1l-4.3,0.1l-4.3,0.4l-4.4,0l-4.3,0.6l-4.3,0.5L704.9,4l-4.4,0.3l-4.3,0.8l-5,0.8L686.1,6l-4.1,0.9l-4.2,0
	l-4.1,0.5l-5,1l-5,0.9l-4.9,1l-4,0.8l-2.8,3l-0.3,4.1l0.2,4.1l0,4.1l-4.2-0.2l-4.1-0.1l-4.1,0.2l-4.1,0.7l-0.7-0.2l-2.4-0.1
	l-3.5,0.3l-4.9,0.7l-4.5,0.8l-4.4,1.1l-4.5,0.5l-4.6,1.4l-4.4,1.9l-4.4,2l-3.9,2.8l-3.7,3.1l-4.2,0.6l-4.2,0.7l-4.2,0.4l-4.3,0.1
	l-4.2,0.5l-4.2,0.4l-4.2,0.8l-4.3,0.1l-5.3,0.9l-5.3,0.5l-1.8-3.8l-1.7-3.9l-2.7-3.3l-3.5-2.5l-3.5-2.5l-4.1-1.4l-4.4-0.3l-4.2,0.3
	l-4.2-0.2l-4.2,0.1l-3.6,0.2l-3.6-0.1l-3.8,0.5l-3.8,0.1l-3.8,0.7l-0.7-0.1l-4.2,0.7l-4.2,0.5l-4.2,1l-4.1,1.3l-4,1.5l-3.7,2.1
	l-3.4,2.6l-3.5,2.5l-2.9,3l-4.9-1.5l-5.2-0.5l-4.5,0.2l-4.5,0.4l-4.5,0.5l-4.6,0.3l-4.5,0.6l-4.5,0.8l-4.6,0.3l-4.5,0.8l-4.4,1.2
	l-4.5,0.6l-4.5,1.4l-2.2,4l-0.4,4.6l0.2,4.7l1.1,4.6l0.5,6.4l0.3,4.2l0.5,4.1l0.8,4.1l0.3,5.4l0.5,5.3l0.7,4.9l0.3,4.9l0.3,1.4
	c-0.2,0.2-0.3,0.4-0.5,0.5c-2.2-0.1-4.3,0.1-6.3,0.6c-0.1,0-0.2,0-0.4,0c-2.3,0-4.6,0.6-6.6,1.7c-0.5,0.1-0.9,0.3-1.4,0.5
	c-0.5,0.2-0.9,0.4-1.5,0.7c-0.9-0.1-1.8-0.2-2.7-0.2c-1.2,0-2.3,0.1-3.4,0.2l0-1.5l0.1-4.4l0.2-4.2l0.5-4.2l0.5-4.2l0.3-4.2l0-4.2
	l0.1-4.2l0.6-4.2l0.2-4.2l0.1-4.5l0.7-4.4l-0.1-4.4l0.1-4.5l-1.9-3.9l-3.6-1.9l-4.2-0.1l-4.1,0.8l-4.1,0.3l-4.1,0.3l-4.1,0.2
	l-4.1,0.2l-4,1l-4.1,0.3l-4.1,0.4l-4.1,0.6l-5,1l-4.9,1.5l-4.2,2.8l-3.5-1.4l-3.7-1l-3.8,0.4l-4.3,0.2l-4.2,0.8l-4.2,0.7l-4.2,0.6
	l-4.3,0.3l-4.3,0.3l-4.2,1l-4.2,0.5l-4.2,0.5l-4.2,0.5l-5,0.8l-4.3,2.5l-5.1-1.5l-5.3,0.2l-3.8,0l-3.7,0.8l-4.3,0.3l-4.3,0.5
	l-4.3,0.5l-4.3,0.8l-5.4,0.5l-3.9-1.8l-4.2-1.4l-4.3-1l-4.3-0.9l-4.4-0.4l-4.5,0.1l-2.9,0l-6.5,0.4l-4.1,0.6l-0.9-0.3l-4.2,0.6
	l-4.2,0.4l-4.1,0.9l-4.2,0.3l-2.3,0.4l-3.5,1.1l-4.7,0.7l-4.6,1.4l-4.2,1.6l-4.2,1.7l-3.8,2.4l-3.6,2.7l-3.5,2.8l-2.8,3.6l-1.7,0
	l-1.5,0.2l-4.2-0.1l-4.1,1l-4.2,0.2l-4.1,0.6l-4.1,0.7l-5,0.6l-4.6,0.9l-4.1,2.2L82.2,93L78,90.8l-4.4-1.5l-4.7-0.3l-4,0.3L61.2,90
	l-3.7,0.9l-3.8,0.4l-6,0.9l-4.2,0.5l-4.2,0.4L35,94l-4.5,0.2l-4.4,0.9l-3.8,1.1L19,98.6l-0.6,4.1l-0.1,4.1l0.2,4.1l0.3,4.1l0.7,5.5
	l0.6,4.8l1.1,4.8l0.5,4.2l0.1,4.2l0.6,4.2l0.7,4.7l0.2,4.7l0.5,4.7l1,4.7l0.6,4.7l0.1,4.8l1,3.5l0.7,3.5l0.7,5.1l0.6,4.7l0.3,4.7
	l0.2,4.7l0.6,4.7l-4.5,1.1l-4.3,1.8l-4.5,1.2l-4.4,1.6l-3.9,2.6l-3.3,3.1l0.7,4l2.9,3.4l3.5,2.8l3.4,2.9l3.8,2.4l3.5,2.7l3.9,2.1
	l3.8,2.2l3.2,3l3.4,2.7l3.5,2.6l3.5,2.6l3.8,2l2.6,2.1l4.4,1.7l4.3,1.8l4.4,1.7l4.5,1.3l4.5,1.4l2.2-0.5l3.6-2.3l3.3-2.6l3.4-2.6
	l3.2-2.8l3.2-2.8l2.6-3.2l2.1,3.8l3.1,2.8l3.9-0.7l4-0.1l4-0.6l4-0.6l4.5-0.3l4.5-0.6l4.5-0.6l4.5-0.6l4.5-0.8l4.5-0.6l4.5-0.7
	l4.5-0.2l3.9-1.9l2.3-3.6l1.1-4.1l-0.3-4.3l-0.2-4.2l-0.3-4.2l-0.6-4.8l5.1,0.9l5.1,0l3.6,0.2l4.9-0.7l4.9-0.4l4.9-0.4l0.3,0.1
	l4-0.6l4-0.7l3.9-0.9l5.4-0.4l5.3-0.7l4-1.2l3.9-1.2l4-1l3.5-2.3l3.5-2.1l3.3-2.4l2.2-1.5l1.2,3.8l1.5,3.7l1.5,3.7l0.9,4.3l1.1,4.3
	l1.7,4.1l3.8,2.1l4.3,0.5l4,0l4-0.5l4-0.6l4.5-0.5l4.5-0.6l4.5-0.7l4.5-0.6l4.5-0.4l4.5-0.4l4.5-0.8l4.5-0.9l4.1-2.1l3.7-2.6l3.2-3
	l3.2,2.5l4,1.4l4,1.4l4.2-0.4l3.4-0.5l3.4-0.5l4.3,0l4.2-0.9l4.2-0.2l4.2-0.9l4.2-0.4l4.2-0.8l4.3-0.2l4.2-0.7l4.2-0.6l4.3-1.1
	l2.6-3.5l0.5-4.4l0.5-4.4l0.4-4.4l-0.2-0.2l0.6-4.7l0.1-4.7l0.4-4.7l0.1-4.7l0.2-4.7l0.2-1.9l16.3-2.7c0.5-0.1,1-0.2,1.6-0.3
	l5.5-0.9c2.3-0.4,4.5-0.8,6.8-1.1l0.4,4.3l0.8,4.3l0.4,3.6l0,3.7l0.6,4l0.1,4.1l0.9,4l0.5,4l0.2,4.1l0.9,4l0.4,4.1l1.3,3.9l0.8,4.1
	l1.1,3.8l4,1l4.2,0.1l4-0.7l4-0.5l1.4,0.4l1.1-0.2l4.4-0.5l4.4-0.5l4.4-0.6l4.4-0.4l4.5-0.2l4.4-0.7l4.5-0.7l4.5-0.7l4.5-0.5
	l4.5-0.7l4.5-0.6l4.5-0.5l4.5-0.3l4.5-0.5l4.5-1l4.6,0.2l3.6-2.4l0.6-2.5c0.2,2,0.4,3.6,0.5,4.8c0.1,0.8,0.3,1.6,0.6,2.3l0.1,0.3
	c1,2.1,3.2,3.4,5.5,3.4c0.2,0,0.4,0,0.6,0l4-0.4c0.8-0.1,1.6-0.3,2.3-0.7c0.5,0.2,1.1,0.2,1.7,0.2c0.3,0,0.7,0,1-0.1
	c0.2,0,0.6,0,1-0.1c1.1,0,2-0.2,2.8-0.4c0.2,0,0.4,0,0.6,0c0.7,0,1.5-0.1,2.2-0.1c0.7-0.1,1.4-0.2,2.2-0.3c0.7-0.1,1.4-0.4,2-0.7
	c0.8,0.2,1.6,0.3,2.6,0.3c0.2,0,0.3,0,0.5,0c0.1,0,0.3,0,0.4,0l4.2-0.4c0,0,0,0,0.1,0c0.4,0,0.8-0.1,1.2-0.2
	c1.4-0.4,2.5-0.9,3.4-1.5c0.3,0.8,0.9,1.6,1.6,2.2c1.1,1,2.6,1.6,4.1,1.6c0.1,0,0.3,0,0.4,0c2-0.1,3.8-0.3,5.4-0.6
	c1.3,0.1,2.4-0.2,3.3-0.6c1.1,0.3,2.2,0.4,3.4,0.4c0.6,0,1.2,0,1.8-0.1c1.2-0.1,2.8-0.4,4.9-0.9c0.3-0.1,0.6-0.2,0.9-0.3
	c0.7,0.2,1.4,0.4,2.1,0.4c0.2,0,0.4,0,0.5,0l4.2-0.4c0.5,0,0.9-0.1,1.4-0.3c0.3,0,0.6,0,0.9,0l1.8-0.2c0.2,0.3,0.5,0.5,0.8,0.8
	c1.1,0.8,2.4,1.3,3.8,1.3c0.3,0,0.7,0,1-0.1c0.1,0,0.7-0.1,3.1-0.3c2.1-0.2,3.8-0.5,5.2-0.9c0.4-0.1,0.7-0.3,1.1-0.5
	c2.7-1.6,4.3-4.1,4.4-6.8c0.3,0,0.6,0.1,0.9,0.1c0.1,0,0.3,0,0.4,0c2-0.1,3.8-0.3,5.4-0.6c1.1,0.1,2.1-0.1,2.8-0.4
	c0.7,0.3,1.5,0.5,2.3,0.5c0.2,0,0.3,0,0.5,0c0.7,0,1.3,0,1.9-0.1c0.8-0.1,1.4-0.2,2.1-0.4c0.1,0,0.2,0,0.4,0c1.7,0,3.6-0.2,5.7-0.7
	c0.5-0.1,1-0.3,1.5-0.6c0.8,0.2,1.6,0.3,2.4,0.3c0.7,0,1.4-0.1,2-0.1c1.3,0,2.3-0.1,3.3-0.4c1.5-0.2,2.8-0.7,4-1.4
	c1.1,0.4,2.3,0.7,3.6,0.7c0.2,0,0.4,0,0.7,0c0.9-0.1,1.9-0.2,2.8-0.3c1.4-0.1,2.6-0.7,3.5-1.5c0.9,0.5,1.9,0.8,2.9,0.8
	c0.2,0,0.4,0,0.5,0l4.2-0.4c0.5,0,0.9-0.1,1.4-0.3c0.3,0,0.6,0,0.9,0l1.8-0.2c0.3,0.3,0.5,0.5,0.8,0.8c1.1,0.8,2.4,1.3,3.8,1.3
	c0.3,0,0.7,0,1-0.1c0.1,0,0.7-0.1,3.1-0.3c2.1-0.2,3.8-0.5,5.2-0.9c0.4-0.1,0.8-0.3,1.1-0.5c0.8-0.5,1.5-1,2-1.6
	c1.3,1.4,3.2,2.4,5.3,2.7c0.3,0,0.6,0.1,0.9,0.1c0.1,0,0.1,0,0.2,0c3.5-0.1,6-0.4,7.9-0.9c0.4-0.1,0.7-0.2,1.1-0.4
	c0.5,0.1,0.9,0.2,1.4,0.2c0.3,0,0.7,0,1-0.1c0.2,0,0.6,0,1-0.1c1.1,0,2-0.2,2.8-0.4c0.2,0,0.4,0,0.6,0c0.8,0,1.5-0.1,2.2-0.1
	c0.7-0.1,1.4-0.2,2.2-0.3c0.7-0.1,1.4-0.4,2-0.7c0.8,0.2,1.6,0.3,2.6,0.3c0.2,0,0.3,0,0.5,0c0.1,0,0.3,0,0.4,0l4.2-0.4
	c0.1,0,0.1,0,0.1,0c0.4,0,0.8-0.1,1.1-0.2c1.2-0.4,2.3-0.8,3.1-1.4c1,0.6,2.1,1,3.4,1c0.2,0,0.4,0,0.6,0l4.7-0.4
	c0.6-0.1,1.2-0.2,1.7-0.4c0.4,0.1,0.9,0.1,1.3,0l4.1-0.4c1.2-0.1,2.4-0.6,3.3-1.3l0.4-0.3c1.2-1,2-2.4,2.3-4
	c0.2-1.2,0.2-2.9,0.3-5.3v0c0-2.1,0.1-3.1,0.2-3.5c0.1-0.4,0.1-0.8,0.1-1.2l1-0.1c0.3,0,0.7-0.1,1-0.2c0.1,0,0.3,0,0.4,0
	c0.2,0,0.3,0,0.5,0l1.3-0.1c0.4,0,0.8-0.1,1.1-0.2c0.1,0,0.2,0,0.2,0l1-0.1c0.1,0,0.2,0,0.2,0c0.4,0.1,0.7,0.1,1.1,0l1.3-0.1
	c1.4-0.1,2.6-0.8,3.4-1.9c0.8-1.1,1.2-2.4,1-3.8l-0.8-5.3l1.3-0.1l4.6-0.7l4.7-0.5l4-0.4l4-0.5l4-0.7l3.6-1.7l2-3.5l-0.1-4
	L784.8,158z"/>
<path class="st1" d="M467.9,175c-5.4,0.2-6.8-0.4-7.2-3.4c-1.1-10.1-2-20.3-3-30.4c-1.2-12.5-2.6-24.9-3.8-37.4
	c-0.4-4.2-0.9-8.4-1-12.6c-0.2-4.4,0.3-8.8-0.1-13.1c-0.6-6.5-1.7-13-2.7-19.4c-0.1-0.6-1.3-1.4-2-1.4c-11,0.2-22,1-33.2,2.9
	c0.6,6.4,1.2,12.7,1.7,18.9c0.9,10.5,1.8,21,2.7,31.6c0.1,0,0.1,0,0.2,0l0.2,0c0.1,0,0.2,0,0.3,0.2c0.1,0.1,0.2,0.3,0.6,0.3l0.3,1.1
	c0.2,0.9,0,1.4-0.6,1.5c-0.2,0.1-0.5,0.1-0.7,0.1c1.1,13.5,2.3,26.9,3.4,40.4c1,11.4,1.8,22.9,2.8,34.4c0.1,1.1,0.4,1.9,2.4,1.5
	c0.9-0.2,0.7-0.1,1.7-0.1c0.1,0,0.4,1,0.3,1.2c-0.1,0.1-0.4,0.4-1.5,0.5c-0.3,0-1.3,0-2.2,0.1c0.1,1.3,0.1,2.9,0.5,3.8
	c0.7,0,1.4,0.1,1.8,0.1c18.1-0.8,36-4.1,54.2-4.6c1.9,0,3.8-0.5,3.7-2.1c-0.5-4.9-0.9-9.8-1.4-15C478.6,174.4,473.3,174.8,467.9,175
	 M447.1,122.5c-0.3,0.1-0.4,0.2-0.5,0.5c-0.9-0.1-1.5-0.3-1.6-0.6c-0.1-0.5,0.2-0.8,1-1c0.8-0.2,1.2-0.1,1.3,0.3l0.1,0.4
	C447.5,122.2,447.4,122.4,447.1,122.5 M450,118.3c-0.8,0.5-1.6,0.8-2.2,0.9c-0.3,0.1-0.6,0.1-1,0c-0.4,0-0.6-0.2-0.7-0.4
	c-0.1-0.4,0-0.6,0.3-0.8c0.3-0.1,0.5-0.4,0.8-0.7l0.6-0.1c0.4-0.1,0.7-0.2,1-0.3c0.3-0.1,0.6-0.2,0.8-0.3c0.1,0,0.3,0,0.4,0
	c0.1,0,0.3,0,0.6,0c0.3,0.2,0.5,0.4,0.6,0.7C451.2,117.5,450.9,117.8,450,118.3"/>
<path class="st1" d="M218.1,103.7c-0.3-3.2-0.2-6.5-1.1-9.6c-0.9-3.3-1.8-6.9-4.5-9.6c-4.3-4.4-11.7-6.1-20.2-5.7
	c-3.5,0.1-7.1,0.3-10.6,0.5c-5.6,0.5-11.3,1-16.9,1.5c-4,0.9-8,1.6-11.9,2.6c-9,2.4-15.8,8.4-15.4,13.6c0.7,10.9,1.4,21.7,2.2,32.6
	c0.6,9.9,0.3,7,0.7,16.9c0.3,9.9,2,10.6,1.4,20.5c-0.3,3.8,0.5,7.6,1,11.3c1.2,9.6,8.5,14.7,22.8,15.4c5.1,0.3,10.5-0.3,15.7-0.8
	c7.6-0.8,15.1-2,22.6-2.7c9.4-1,19.2-8.4,18.9-14.4c-0.7-17.7,0.1-13.5-1.1-31.3C220.7,130.9,219.3,117.3,218.1,103.7 M189.2,170.9
	c-0.2,2.9-3.4,4.7-7.4,4.9c-3.4,0.2-5.6-1.4-5.9-4.5c-1.4-15.1-0.7-8.2-2.1-23.3c0.5,0,1-0.1,1.5-0.1c-1.3-15-2.7-30-4-45
	c-0.3-3.3,2.2-5.6,6.5-6.1c4.5-0.5,7.6,1.3,8,4.8c0.5,4.9,0.8,9.7,1.2,14.6c1.2,17.9,1.1,22.9,2.3,40.7c0.2,2.4,1.2,4.7,1.3,7.1
	C190.6,169.3,189.7,165.6,189.2,170.9 M208.3,107.4c3.5-0.9,4.4,0.7,5.5,2C210.6,111.1,209.5,110.8,208.3,107.4"/>
<path class="st1" d="M360,118.5c0-1.4-0.1-2.8,0.1-4.2c0.1-1.1,0.2-2.2,0.3-3.2c-0.3,0.1-0.5-0.1-0.6-0.5l0.1-0.5
	c0.2,0,0.4-0.1,0.6-0.1c1-11.9,2.2-23.8,3.3-35.7c0.2-1.6-0.8-2.1-3.6-1.9c-7.1,0.7-14.2,1.4-21.3,1.9c-3.6,0.2-4.7,1.2-4.7,3.1
	c0,3.4,0,6.8-0.1,10.2c-0.3,8.6-0.8,17.2-1.1,25.7c-0.2,6.4-0.3,12.8-0.6,19.2c-0.1,2.3-0.8,4.5-1.3,6.8c-0.5,0.1-0.9,0.2-1.4,0.2
	c-0.6-0.6-1.7-1.2-1.8-1.8c-1.4-6.3-2.8-12.7-4-19c-0.5-2.7-0.6-5.5-1.1-8.3c-0.4-2.1-1.2-4.2-1.7-6.4c-1.4-6.8-2.6-13.7-4.2-20.5
	c-0.6-2.4-1.9-4.7-2.7-6.8c-14.6,1.3-28.5,2.5-42.5,3.8c-0.2,5.7-0.2,11.2-0.5,16.6c-0.4,7.6-0.9,15.1-1.2,22.7
	c-0.3,7.1-0.3,14.1-0.5,21.2c0,1-0.8,2.1-1.3,3.1c-0.5,0-0.9,0-1.4,0c-1.3-4.3-3-8.5-3.9-12.8c-2.5-12.2-4.7-24.4-7.2-36.6
	c-0.9-4.2-2.5-8.4-3.8-12.7c-8.9,0.8-16.8,1.5-24.8,2.2c-5.9,0.6-6.3,1-5.3,4.4c0.1,0.3,0.1,0.6,0.2,0.9c1.3,5.7,2.6,11.4,4,17
	c2.9,11.8,5.8,23.6,8.8,35.4c1,4.1,2.1,8.2,3.1,12.2l0.7,2.9c1.4,5.5,2.9,11,4.4,16.5c2.9,10.3,6.2,20.5,9.1,30.8
	c0.4,1.4,1.3,1.7,3.6,1.5c9.1-0.8,18.1-1.6,27.2-2.3c6.3-0.5,7-0.9,7.3-4.7c0.7-7.5,1.5-15.1,2.3-22.6c0.3-2.7,0.6-5.5,0.9-8.2
	c-0.4,0-0.7-0.1-0.9-0.4c-0.4-0.4-1-0.6-1.8-0.5l0-0.2c0-0.1-0.1-0.2-0.3-0.3c-0.2,0-0.3-0.1-0.3-0.3l0.4-0.5
	c1.5-0.3,2.5-0.2,3.2,0.4c0-0.5,0.1-1,0.2-1.5c0.9-8.4,1.7-16.8,2.8-25.3c0.1-0.8,1.2-1.7,1.9-2.6c0.6,0,1.2,0,1.7,0
	c6,21,12,41.9,18.2,63.3c11.7-1,22.8-2,33.9-3.1c0.9-0.1,2.4-1.1,2.5-1.7c0.8-7.6,1.4-15.3,1.9-22.9c0.4-6.6,0.5-13.2,1-19.8
	c0.4-6.2,1-12.4,1.5-18.7l0.2-2c0.2-2.3,0.4-4.7,0.5-7c0.1-2.1,0-4.2-0.1-6.3L360,118.5z M286.1,167.7l-1.1,0.3l-0.4,0.1
	c-0.4-0.2-0.7-0.3-1-0.4c-0.3,0-0.5-0.2-0.6-0.7l0-0.2l-0.1-0.2c-0.1-0.3,0.2-0.5,0.8-0.7c0.7-0.2,1.8,0.2,3.3,1.1
	C286.8,167.4,286.5,167.6,286.1,167.7 M338.9,81c0.1-0.1,0.2-0.3,0.3-0.7c0.1,0,0.5-0.1,1.1-0.2c0.6-0.1,0.9-0.1,0.9,0
	c0.1,0.3-0.1,0.6-0.5,0.8c-0.5,0.1-0.8,0.3-1,0.5c-0.2,0.2-0.4,0.3-0.7,0.4c-0.1,0-0.2,0-0.3-0.2C338.7,81.4,338.8,81.1,338.9,81
	 M346.4,82.4c-0.3,0.2-0.5,0.3-0.6,0.4c-0.8,0.2-1.4,0.1-2-0.3c-0.5-0.3-1.1-0.7-1.6-1c0.5-0.4,1-0.7,1.5-0.8
	c0.7-0.2,1.8,0.1,3.2,0.7l0.1,0.2L346.4,82.4z"/>
<path class="st1" d="M136,217.8c0.2,2.1-0.8,2.9-4.4,3.2c-9.9,0.8-19.8,1.7-29.9,2.6c-1.8-4.4-3.3-8.3-4.9-12.2
	c-6.1-14.1-12.2-28.2-18.4-42.3c-0.4-0.8-1.5-1.5-2.3-2.2c-0.5,0.1-1,0.2-1.4,0.3c-0.4,2.1-1.2,4.2-1,6.2c0.3,3.6,1.2,7.2,1.7,10.9
	c0.2,1.3-0.4,2.7-0.3,4c0.6,8.4,1,13.8,1.5,20.4c4.1-0.5,8.2-1.3,12-2.7c0.7,0,1.3,0,1.9,0c-0.3,5.2-5.9,9.3-8.7,13.1
	c-2.4,3.3-7.9,13.7-12.5,14.1c-4.5,0.4-12.5-6.6-16.7-8.5c-6.9-3.2-13.5-6.5-20.1-10.7c4.9-3.9,10-3.8,15.6-3.7
	c-0.8-12-1.4-24-2.2-36c-0.3-4.3-1.3-8.5-1.7-12.7c-1.2-13.6-2.4-27.3-3.5-40.9c-0.4-4.9-0.9-9.8-1.4-15.2c4.1-0.5,8.2-1,12.3-1.4
	c6-0.7,12-1.1,17.9-2c3.3-0.5,4.2,0.8,4.9,2c2,3.7,3.8,7.4,5.6,11.1c6,13.1,11.8,26.2,17.7,39.3c0.3,0.6,0.9,1.1,1.4,1.6
	c0.4,0,0.8,0,1.2-0.1c0.3-1,0.9-2.1,0.9-3.1c-1-17.1-2.1-34.1-3.2-51.2c0-0.5,0-1,0-1.8c8.6-0.8,17.1-1.6,25.6-2.2
	c0.7-0.1,1.7,0.7,2.2,1.2c0.3,0.3,0.1,0.8,0.2,1.3C129.3,139.4,132.6,178.6,136,217.8 M82.8,153.3c-0.3,0.5-0.6,1-0.9,1.4
	c0.2,0.3,0.5,0.4,1,0.3c0.3-0.1,0.6-0.3,0.9-0.6c0.3-0.3,0.6-0.6,0.9-0.8l-0.1-0.2c-0.2-0.7-0.5-1.1-0.9-1
	C83.5,152.4,83.2,152.7,82.8,153.3 M78.7,157.7c0.4-0.4,0.5-1.1,0.3-1.9c-0.5-0.1-0.9-0.2-1.1-0.3c-0.3-0.2-0.6-0.2-1.1-0.1
	c-0.3,0.2-0.5,0.4-0.6,0.6c-0.2,0.4-0.3,0.6-0.3,0.8c0.1,0.4,0.3,0.8,0.5,1.1c0.4,0.5,0.9,0.7,1.3,0.6
	C77.9,158.3,78.3,158.1,78.7,157.7"/>
<path class="st1" d="M762.1,154.8c-11.7,1-22.1,2-32.8,2.9c-0.2-1.2-0.4-2.1-0.5-2.9c-1.6-15.9-3.2-31.8-4.8-47.7
	c-0.4-4.4-3-5.9-9.7-5.8c-3.5,0.1-5.9,1.9-5.7,4.2c1.5,17.3,3,34.6,4.5,52c0.2,1.8-1,2.5-3.5,2.8c-9,0.8-18.1,1.6-27.8,2.5
	c-3.1-30.6-5.4-60.9-7.5-91.3c3-0.2,6-0.1,8.9-0.3c6.4-0.5,12.9-1.1,19.3-1.7c1.3-0.1,2.6-1.5,3.5-3.3c0.9,7.7,1.7,15.7,2.6,23.4
	c6.2,2.8,10.9-11.6,13.9-16.4c2.8-4.5,7.6-9.6,9.7-14.7l0.4-2.2c-6.5-2.8-12.9-9-17.3-15.2c-4-5.6-6.2-7.1-11.4-10.6
	c-2.2,6.3-0.5,17.2,0.8,25.4c-0.8-0.5-1.7-0.8-2.7-0.8c-6.2-0.1-12.4,0-18.6,0c0,0.2,0,0.4,0,0.6c-3.4,0.3-6.8,0.5-10.1,0.9
	c-0.6-9.5-1.3-19-1.9-28.5c5.8-0.5,11.5-1.1,17.2-1.5c11.9-1,23.7-2.2,35.6-2.8c15.9-0.7,24.4,3.7,26,12.4
	c1.5,8.3,1.8,16.8,2.6,25.2c0.4,4.6,1,9.1,1.2,13.7c0.2,5.3-2,10-8.7,13.9c-0.8,0.5-0.5,2.2,0,3.2c0.3,0.6,1.8,0.9,2.9,1.2
	c5,1.2,7.4,3.9,7.9,7.1c1.8,12.4,3.1,24.8,4.6,37.2C761.2,143.3,761.6,149,762.1,154.8 M719.5,89c0,0.2,0.1,0.2,0.3,0.2
	c0.3-0.1,0.5-0.2,0.7-0.4c0.2-0.2,0.5-0.4,1-0.5c0.4-0.2,0.6-0.5,0.5-0.8c0-0.2-0.3-0.2-0.9,0c-0.6,0.1-1,0.2-1.1,0.2
	c-0.1,0.3-0.2,0.6-0.3,0.7C719.4,88.5,719.4,88.7,719.5,89 M727.6,88.9l-0.1-0.2c-1.4-0.6-2.5-0.8-3.2-0.7c-0.4,0.1-0.9,0.4-1.5,0.8
	c0.6,0.3,1.1,0.7,1.6,1c0.5,0.4,1.2,0.4,2,0.3c0.1,0,0.3-0.2,0.6-0.4L727.6,88.9z"/>
<path class="st1" d="M671,149.8c-0.4-8-0.9-15.9-1.4-23.9c-0.1-1.5-0.6-2.9-1-4.8c-7.2,0.6-14.3,1.3-21.3,1.9
	c-2.4,0.2-3.3,1.2-3.2,3.1c0.5,5.3,0.9,10.7,1.5,16c0.3,2.4-0.1,4.6-1,6.8c-1.1,2.6-1.8,3.1-4.9,3c-3.1-0.1-5.6-1.6-6-3.6
	c-0.3-2-0.8-3.9-1-5.9c-0.9-9.3-1.7-18.7-2.5-28c-0.3-3.1,0.8-4,4.7-4.4c1-0.1,2.1,0.1,2.4-1.1c0-0.2,1.6-0.2,2.5-0.2
	c0.5,0,1.1,0.5,1.6,0.4c8.4-0.7,16.8-1.5,25.5-2.2c0.1-2.6,0.3-5,0.3-7.4c-0.1-3.7-0.3-7.4-0.6-11.1c-0.3-3.6-0.8-7.3-0.9-10.9
	c-0.1-3.6-1-7.2-1.3-10.8c-0.3-3.8-1.4-7.7-2.7-11.4c-0.8-2.4-2-5.1-4.2-6.6c-5.2-3.3-11.5-4.5-18.4-3.3c-2.1,0.4-4,2.1-6.1,0.3
	c-0.1-0.1-0.6,0-0.9,0c-5.9,0.8-11.9,1.3-17.8,2.4c-7.7,1.4-12.4,4.8-14.1,9.9c-0.2,0-0.3,0-0.5,0c-24.7,2.3-42.8,3.9-67.5,6.1
	c-0.6,0.1-1.1,0.1-1.6,0.3c-0.4-2.2-0.8-4.4-1.2-6.7c-0.8-4.2-2-8.3-6.8-10.9c-3-1.6-5.9-3-9.9-2.7c-6,0.5-12.1,0.3-18.1,1
	c-8.7,1-17.4,1.7-23.5,8.6c-2.2,2.5-3.4,5-3.4,7.5c0.1,8.4,0.9,16.7,1.4,25.1c0.1,1.3,0.8,1.9,2.5,1.7c6.2-0.6,12.5-1.1,18.7-1.7
	c4-0.4,4-0.5,3.9-3.7c0-0.7-0.1-1.5-0.1-2.2c-0.4-4.1-0.6-8.2-1.1-12.2c-0.3-2.2,0.4-3.9,2.3-5.6c1.6-1.4,3.2-2.3,5.3-1.7
	c2.1,0.7,3.8,1.7,4.1,3.9c0.9,7.2,1.8,14.4,2.9,21.6c0.5,2.8-0.8,4.8-3.3,6.5c-7.8,5.3-15.6,10.6-23.4,15.9c-4.4,3-7.3,6.7-7.9,11.3
	c-0.3,2.6-0.4,5.3-0.1,8c0.7,6.3,1.7,12.7,2.4,19c0.3,2.5,0.1,5.1,0.5,7.6c0.5,2.4,1.3,4.8,2.4,7c2,4.2,6.7,6.3,11,8.6
	c0.3,0.2,0.7,0.2,1.1,0.2c2.6,0,5.1,0.1,7.7-0.1c3.7-0.3,7.4-1,10.3-3.2c2.9-2.3,3.7-2.3,6.5-0.1c0.6,0.5,1.4,1,2.2,1
	c7.9,0.1,15.6-1.2,23.4-2.9c0-0.4-0.1-0.7-0.1-0.9c-0.9-10-1.8-20-2.7-30c-1.4-15.8-2.7-31.5-4.1-47.3c-1,0.1-2,0.2-3,0.3
	c-3.5,0.4-5.3-0.3-5.4-2.7c-0.1-4.3-0.6-8.5-1.1-12.8c-0.2-1.8,1.4-2.3,3.5-2.5c0.6-0.1,1.1-0.1,1.7-0.2c0.4,3.4,0.7,6.9,0.8,10.3
	c0.1,2.4,1.9,3.1,5.4,2.7c4-0.4,8-0.9,12-1.3c1.5-0.2,1.9-0.4,2-0.5c-0.1,0-0.2,0.3-0.1,1c0.3,1.6,0.1,3.3,0.3,4.9
	c0.6,4.7,1.4,9.3,1.5,14c0.1,12.1,1.7,24.1,2.8,36.1c1.4,16,2.1,23.9,3.5,39.8c0.1,0.7-0.1,1.4,0.4,1.9c0.6,0.5,1.8,1.1,2.7,1
	c9.5-0.8,19.1-1.6,29.1-2.5c0-1.4,0.1-2.6,0-3.7c-0.6-6.6-0.6-5.2-1.2-11.9c-1.1-13.6-2.2-27.2-3.3-40.8c-1-13.1-2-26.1-3-39.2
	c-0.2-2.8,1.1-4.1,5.8-4.9c3.3-0.6,12.1,0.4,16-0.3c1.3-0.2,3.3-1.4,3.3-1.9c-0.3-3.9-0.9-7.8-1.5-11.7c2.6-0.1,4.1,0.4,4.3,2.2
	c0.7,4.6,1.4,9.1,1.8,13.8c0,0.6-2,1.7-3.3,1.9c-1.8,0.3-4.7,0.3-7.6,0.2c0.5,6.6,1,13.3,1.6,19.9c1.4,15.1,2.8,30.2,4.9,45.2
	c0.7,4.9-0.2,10.3,3.8,14.7c0.9,1,1.4,2.4,2.5,3.3c4.8,3.9,11.1,4.6,17.7,4.2c6.2-0.4,12.4-1.1,18.6-1.6c1.9-0.2,3.5-0.3,3.9-2.2
	c0-0.3,0.9-0.5,1.4-0.7c0.2,0.3,0.4,0.7,0.5,1c0.1,0.3,0,0.7-0.1,1.3c4.4-1.8,9.3-2.3,11-6.5c0.4-0.9,1.2-1.8,2.1-2.4
	c2.1-1.6,3-3.4,2.4-5.6C671,150.6,671.1,150.2,671,149.8 M505.7,153.1c-1.5,0.1-3.6-1.5-3.7-2.9c-1.1-10.1-2.1-20.2-3.1-30.4
	c-0.3-3.4,3.3-6.4,6.9-7.8c1.7-0.7,3.1,0.2,3.6,2c0.4,1.8,1,3.6,1.4,5.3c-0.2,1-0.7,2-0.6,2.9c0.7,8.5,1.6,16.9,2.2,25.4
	C512.6,152.8,512.1,152.5,505.7,153.1 M534.3,143.6c1,2,0.6,3.7-1.2,4c-0.8,0.1-2.2-0.6-2.7-1.3C529.7,145.1,531,144.2,534.3,143.6
	 M608.5,114.4c1,1,1.8,1.7,2.7,2.5C608.1,117.4,607.8,117.1,608.5,114.4 M628.4,91c-0.5-3.2-0.6-6.4-0.9-9.6c-0.1,0-0.3,0-0.4,0
	c0-5.2-0.1-10.3-0.1-15.5c0-2.6,1.9-4.4,4.4-4.5c3-0.2,6.9,2,7.1,4.1c0.5,5.4,1,10.7,1.4,16.1c0.2,2.5,0.1,5,0.3,7.4
	c0.1,1.9-0.1,3.6-2.4,4.7c-2.4,1.1-5.1,1.3-7.5,0.2C629.2,93.4,628.5,92.1,628.4,91 M558.8,81.3c0.3,1.6,0.2,2.6-0.1,3
	c-0.3,0.3-0.9,0.8-1.8,1.4c-0.3-0.2-0.4-0.6-0.4-1.2c0-0.5-0.1-1-0.3-1.4c0.4-0.9,0.9-1.5,1.5-1.6c0.2-0.1,0.4-0.1,0.4,0
	C558.2,81.5,558.4,81.5,558.8,81.3"/>
<path class="st0" d="M436.1,95.8l-22.9,3.8l0.3,6.5c0,0.2,0,0.4,0,0.6c-0.4,0.1-0.8,0.2-1.2,0.3c-5.2,1.4-8.2,4.1-9.7,7.2
	c-2.7-0.6-5.7-0.6-8.1,0.3c-0.3,0-0.6,0-1,0c-1.7,0-3.3,0.5-4.6,1.3c-0.5,0.1-1,0.3-1.6,0.5c-0.5,0.2-1.1,0.5-2.3,1.1
	c-0.1,0-0.2,0.1-0.3,0.1c-1.1-0.2-2.2-0.4-3.4-0.4c-2,0-3.8,0.3-5.5,0.7l-5.2,1c-0.7-0.3-1.6-0.6-2.5-0.7c-1.2-0.2-2.6-0.4-4.3-0.4
	c-1.1,0-2.2,0.1-3.4,0.3c-1,0.2-2.1,0.3-3.2,0.5c-1.2,0.2-2.5,0.3-3.9,0.6l-0.7,0.1c-4.5,0.8-9.5,1.7-13.7,4.8
	c-3.9,2.9-4.4,6.4-4.4,8.1c0,1.9,0.3,3.8,0.5,5.4c0.1,0.5,0.1,1,0.2,1.6c0.2,1.8,1,3.3,2.2,4.5c-0.2,0.7-0.4,1.4-0.5,2.1
	c-0.3,2.1,0.1,3.8,0.3,4.9l0.1,0.4c0.2,0.8,0.4,1.5,0.5,2.1c0.1,0.3,0.2,0.6,0.2,0.9c0,0.2,0,0.4,0.1,0.6c0,0.5,0.1,1.2,0.3,2
	c1,5.4,6.5,8.9,13.9,8.9c1.6,0,3.2-0.2,4.8-0.5c1.8-0.3,3.6-0.7,5.4-1.6c0.7,0.1,1.4,0.1,2.2,0.1c4-0.4,7.7-1.2,11.3-2.1l0,0
	l1.1,2.4l7.1-1.2c2.6-0.4,5.2-0.9,7.8-1.3c0.5-0.1,1-0.2,1.4-0.3l0,0l5.6-0.9c3.6-0.6,7.1-1.2,10.7-1.8l7.3-1.2l-0.7-4
	c0.7,0.1,1.4,0.1,2,0.1c2.8,0,5.6-0.6,8.1-1.8c0.4,0.1,0.9,0.1,1.3,0.1l0.7,0l0.6-0.1c2.4-0.4,4.7-0.8,7.2-1.2l8.5-1.4L436.1,95.8z"
	/>
<path class="st2" d="M371,132.1c-0.3-1.7-0.9-3.2-1.5-4.9c-0.3-0.8-1-1.6-2.7-1.9c-1.5-0.3-3-0.5-5-0.1c-2.3,0.4-4.7,0.6-7.1,1
	c-4.1,0.7-8.3,1.4-11.2,3.6c-1,0.8-1.4,1.4-1.4,2.1c0,2.1,0.4,4.1,0.7,6.1c0,0.3,0.4,0.4,1.1,0.3c3-0.5,6-1,9-1.5
	c0.9-0.1,1.2-0.4,1.1-0.7c-0.1-0.6-0.1-1.2-0.2-1.8c-0.1-0.8-0.3-1.6-0.4-2.4c-0.1-0.6,1.5-1.7,2.6-1.8c1.3-0.2,2.5,0.2,2.7,0.9
	c0.4,1.7,0.7,3.3,1.2,5c0.2,0.7-0.4,1.4-1.6,2c-3.4,1.7-6.8,3.4-10.3,5.1c-2.2,1-3.5,2.2-3.6,3.5c-0.1,1,0.1,1.9,0.3,2.9
	c0.2,1,0.6,2,0.8,3c0.2,0.9,0.2,1.8,0.3,2.6c0.4,1.9,4.3,3.7,10,2.6c1.7-0.3,3.3-0.7,4.6-1.4c1-0.6,1.5-0.7,2.6-0.3
	c0.3,0.1,0.7,0.2,1.1,0.2c3.5-0.3,7-1.1,10.4-1.9c-0.2-0.9-0.3-1.8-0.4-2.6C373.1,145,372.1,138.5,371,132.1 M359.3,152.8
	c-0.9,0.1-2-0.1-2.1-0.5c-0.5-2.5-0.9-5-1.3-7.6c-0.1-0.7,1.6-1.8,3-2.2c0.8-0.2,1.5,0,1.7,0.4c0.2,0.4,0.4,0.8,0.5,1.1
	c-0.1,0.3-0.3,0.5-0.2,0.7c0.3,1.9,0.7,3.8,1,5.7c0,0.2,0.1,0.5,0.1,0.7C362,152.2,361.5,152.5,359.3,152.8 M371.3,150
	c-0.4,0.1-1,0-1.1-0.2c-0.3-0.6,0.8-0.7,1.6-0.9C372.3,149.3,372.1,149.8,371.3,150"/>
<path class="st2" d="M407.5,142.6c-0.9-5.7-1.8-11.3-2.7-17c-0.2-1.3-0.5-2.6-2.2-3.6c-1.5-0.9-4.6-1.3-6.4-0.2
	c-1,0.6-2.7-0.5-3.4,0.3c-0.1,0.1,0.4,1.9,0.1,1.9c-1.9,0.1-1-1.5-2.8-0.8c-0.6,0.3-4.2,2.1-5,2.3c0-0.2,0-0.3,0-0.4
	c-1.4,0.3-1.6,0.3-1.5-0.2c-1.9-0.6-4.1-0.2-6.4,0.2c0,0.1,0,0.3,0,0.4c0.2,2.5,0.3,5.1,0.6,7.5c0.8,5.2,1.7,10.4,2.6,15.6
	c0,0.1,0.1,0.3,0.3,0.3c0.7,0.1,0.5,0.3,0.3,0.5c-0.2,0.2-0.4,0.4-0.4,0.6c-0.1,1.8,0.2,3.6,1.1,5.5c3.2-0.5,6.3-1.1,9.4-1.6
	c1.7-0.3,1.8-0.3,1.7-1.1c-1.4-8.1-2.7-16.2-4.1-24.3c0-0.3,0-0.6,0.2-1c0.3-0.6,1.5-1,2.9-1.2c0.9-0.1,2.2,0.3,2.2,0.8
	c0.3,2,0.6,4.1,0.9,6.1c0.3,2,0.6,3.9,0.9,5.9c0.2,1.3,0.8,2.5,1,3.8c0.5,3.2,0.8,6.3,1.2,9.5c0,0.1,0.1,0.2,0.2,0.3
	c3.6-0.6,7.1-1.2,10.7-1.8c0-0.2-0.1-0.4-0.1-0.6C408.3,147.7,407.9,145.2,407.5,142.6"/>
<path class="st2" d="M430.1,104.3c-3.2,0.5-6.2,1-9.2,1.5c0.1,3,1.9,5.7,1,8.9c-0.9-0.2-1.9-0.3-2.7-0.5c-1.5-0.5-3.1-0.4-4.9,0.1
	c-3.4,0.9-5.6,2.9-5.2,4.8c0.4,1.8,0.4,3.6,0.7,5.4c1.1,6,2.2,12.1,3.2,18.1c0.2,1.1,1,1.8,2.1,2.4c2.5,1.3,7,0.8,9.6-1.1
	c1.1-0.8,1.5-0.8,2.6-0.2c0.2,0.1,0.6,0.3,0.9,0.2c2.7-0.4,5.4-0.9,8.3-1.4C434.4,129.7,432.2,117,430.1,104.3 M424.5,140.7
	c-0.9,0.2-2-0.1-2.2-0.6c0-0.1,0-0.2-0.1-0.3c-0.9-5-1.8-10-2.7-15c-0.3-2.1-0.5-4.2-0.7-6.3c-0.1-0.6,0.7-1.1,1.8-1.3
	c1-0.1,1.7,0,1.9,0.7c0.4,2.1,0.9,4.1,1.3,6.2c0.3,1.6,0.5,3.2,0.8,4.8c-0.1,0-0.2,0-0.4,0.1c0.6,3.5,1.2,6.9,1.7,10.4
	C426.2,139.9,425.6,140.5,424.5,140.7"/>
<path class="st1" d="M777.1,147.7c0.3,2.9-1.7,5.5-4.6,5.8c-2.9,0.3-5.4-1.8-5.7-4.6c-0.3-2.8,1.7-5.4,4.6-5.7
	C774.3,142.8,776.8,144.9,777.1,147.7 M768.3,148.7c0.2,2.2,2,3.7,4.1,3.5c2.1-0.2,3.5-2.2,3.2-4.3c-0.2-2.2-2-3.7-4.1-3.5
	C769.4,144.6,768.1,146.5,768.3,148.7 M771.6,150.8l-1.3,0.1l-0.5-4.8c0.3-0.1,1-0.3,1.9-0.4c1-0.1,1.4,0,1.8,0.2
	c0.3,0.2,0.5,0.5,0.6,1c0,0.5-0.3,0.9-1,1.2l0,0.1c0.5,0.1,0.9,0.5,1.1,1.1c0.2,0.7,0.3,0.9,0.4,1.1l-1.5,0.2
	c-0.2-0.2-0.3-0.6-0.5-1c-0.1-0.5-0.4-0.7-0.8-0.6l-0.5,0.1L771.6,150.8z M771.4,148.1l0.4,0c0.5-0.1,0.8-0.3,0.8-0.7
	c0-0.4-0.4-0.5-0.9-0.5c-0.2,0-0.4,0.1-0.5,0.1L771.4,148.1z"/>
<path class="st3" d="M520,207.2c0-0.1,0-0.2,0-0.3c0-1.2-0.2-3.1-0.5-5.5c0,0,0-0.1,0.1-0.1c0-0.1,0-0.1-0.1-0.1l-0.6-5.8l0.1,0
	l-0.3-2.5c0.2-0.3,0.5-0.5,1.1-0.6c0.8-0.1,1.3-0.2,1.4-0.2c0-0.1-0.1-0.5-0.1-1.3c0-0.5-0.1-0.8-0.3-1.2l-5,0.5
	c-0.4,0.1-0.9,0.2-1.7,0.2c-0.7,0-1.3,0.1-1.6,0.3c-0.1-0.1-0.2-0.2-0.3-0.1c-0.1,0.1-0.2,0.1-0.3,0.1c0.1,0.8,0.2,1.6,0.2,2.3
	c0.2,0.1,0.5,0.1,1,0c0.5-0.1,0.8-0.1,1.1-0.1s0.4,0.1,0.4,0.3c0.1,0.2,0.1,0.4,0.2,0.6c0,0-0.1,0-0.1,0.2l0.4,2.2l-0.1,0.1l0.6,5.5
	l-0.1,0.1c0.5,4.2,0.8,7.3,1,9.4l0.1,0.3l3.9-0.4C520.4,210.6,520.3,209.3,520,207.2"/>
<path class="st3" d="M532.4,195.8c-0.1-0.6-0.2-1.1-0.3-1.7c-0.2-0.7-0.6-1.1-1.2-1.4c-0.8-0.3-1.6-0.4-2.3,0
	c-0.2,0-0.4,0.2-0.7,0.4c-0.3,0.2-0.5,0.3-0.7,0.3c-0.1,0-0.2,0-0.2,0c-0.3-1.9-0.5-3.4-0.5-4.4c-1.6,0-2.8,0.1-3.6,0.2l1.6,16.8
	c0.1,0.6,0.2,1.1,0.2,1.5l0.3,0.2c-0.1,0.1-0.2,0.1-0.3,0.1l0.2,2.5l0.2,0.1c0.2,0,0.8-0.1,1.8-0.1c0.7,0,1.3-0.1,1.7-0.3l-1.4-14.5
	l0.4-0.5c0.4-0.2,0.8-0.2,1.1,0.1c0.6,4.2,1,7.3,1.2,9.4l-0.1,0.1c0.1,0.5,0.2,1.4,0.3,2.7c0,1.2,0.2,2.1,0.4,2.6
	c0.6,0,1.2-0.1,1.8-0.1c0.6-0.1,1.2-0.1,1.8-0.2L532.4,195.8z"/>
<path class="st3" d="M546.3,200.8l-3.9,0.3l-0.4,0.2l0.4,3.7l-0.3,0.9c-0.2,0.2-0.5,0.3-1,0.2l-0.5-0.2c-0.2-0.1-0.3-0.2-0.3-0.3
	c-0.3-1.6-0.6-3.7-0.7-6.4c0.1-0.2,0.2-0.4,0.5-0.4c0.2,0,0.5-0.1,0.7-0.1c-0.1-0.1-0.1-0.1-0.1-0.1c0.1-0.1,0.2-0.2,0.4-0.2
	c0.1,0,0.2,0.1,0.2,0.2l4.7-0.5c0.1-0.9,0-1.9-0.1-3.2c-0.2-2.1-0.3-3.1-0.3-3.2c0-0.1,0-0.1-0.1-0.2c-0.1-0.1-0.1-0.2-0.1-0.2
	c0,0,0-0.1,0.1-0.2c-0.3-1.5-0.6-2.5-0.9-2.9c-0.2-0.3-0.5-0.6-1.1-0.7c-0.2-0.1-0.7-0.2-1.4-0.3c-0.9,0-1.5,0.1-1.6,0.4
	c-0.3,0.1-0.5,0-0.5-0.1c-2,0.2-3.4,0.4-4.1,0.7c-1.2,0.4-1.8,1.2-1.8,2.4c0.2,2.8,0.5,5.7,0.8,8.6c0.3,3.3,0.7,6.1,1.2,8.5
	c0.2,0,0.3,0.1,0.3,0.3c0.6,0.8,1.7,1.2,3.3,1.2c1.4-0.1,2.8-0.3,4.2-0.4l-0.3,0c0.2,0,0.3-0.1,0.2-0.2c0-0.1,0.1-0.2,0.2-0.2
	c0.1,0,0.2,0.1,0.1,0.2l-0.1,0.3c0.8-0.2,1.4-0.5,1.8-0.8c0.1-0.2,0.2-0.5,0.4-0.7c0.2-0.2,0.4-0.4,0.6-0.6
	C546.7,203.6,546.6,201.7,546.3,200.8 M536.6,191.5c0,0.1,0,0.2-0.1,0.2l-0.1-0.2L536.6,191.5z M536.2,193.5l0,0.1l-0.3,0
	C536,193.5,536.1,193.5,536.2,193.5 M535.7,200c0-0.1,0-0.2,0-0.3c0.3,0.1,0.4,0.2,0.4,0.4l0.4,0.1c-0.1,0-0.2,0-0.3,0
	C535.9,200.2,535.7,200.2,535.7,200 M537.6,199.6c0.1-0.1,0.3-0.2,0.4-0.2C537.8,199.5,537.6,199.6,537.6,199.6 M539.2,195.6
	c0-0.3-0.1-0.8-0.2-1.6c-0.1-0.7-0.2-1.3-0.2-1.7c0-0.6,0-1.2,0.1-1.6c0.2-0.3,0.4-0.4,0.7-0.4c0.6-0.1,1,0.2,1.3,0.7l-0.1,0.1
	l0.3,2.6l0.1,0c-0.1,0.1-0.1,0.3-0.1,0.6c0,0.1,0,0.2,0,0.4c0,0.2,0.1,0.3,0.1,0.4c0.1,0.5-0.3,0.8-0.9,0.9
	C539.6,196.2,539.2,196,539.2,195.6 M544.4,203.7l0.3-0.2l0,0.3C544.6,203.8,544.5,203.8,544.4,203.7"/>
<path class="st3" d="M561.5,207.4c-0.2,0-0.6,0-1.4,0.1c-0.6,0.1-1,0.1-1.3-0.1c-0.2-0.5-0.3-1.2-0.3-2c0-0.8-0.1-1.5-0.2-1.8
	c0-0.1,0-0.3-0.1-0.7c-0.1-0.3-0.1-0.5,0-0.6c0-0.2-0.1-1.2-0.3-3.2c-0.1-1.4-0.3-2.4-0.5-3.3c0-0.2,0-0.4,0-0.6
	c0-0.3-0.1-0.4-0.1-0.6c0.1-0.5,0.1-1.1,0-1.7c0-0.3-0.1-0.9-0.3-2c-0.1-0.8-0.2-1.5-0.2-2c-1,0-2.3,0.1-4.1,0.4
	c0,0.5,0,1.1,0.1,1.9c0.2,1.1,0.3,1.7,0.3,1.7l1.6,16.8c0,0.1,0.1,0.1,0.2,0.1c0.1,0,0.1,0,0.2-0.1c0.1-0.1,0.2-0.1,0.2-0.1
	c0.1,0,0.1,0,0.2,0.1l-0.2,0.2c-0.3,0-0.4,0-0.5,0l0,0.6c2.3-0.1,4.2-0.4,5.8-0.7l0.1,0.1c0.5,0.1,0.8,0,1-0.2L561.5,207.4z"/>
<path class="st3" d="M573.9,203.8c-0.2-1.9-0.3-3.1-0.3-3.7c0-0.1-0.1-0.2-0.2-0.3c-0.1-0.1-0.2-0.2-0.2-0.3c0-0.1,0-0.1,0.1-0.2
	l-0.3,0.2l0-0.2c0-0.1,0-0.1,0-0.2c0.1-0.1,0.1-0.1,0.3,0l-0.2-3.2c0-0.1,0.1-0.1,0.1-0.2c0-0.1,0-0.2-0.1-0.3
	c-0.1-0.1-0.1-0.2-0.1-0.3c0-0.1,0.1-0.2,0.2-0.2l-0.6-4.5c0-0.1-0.1-0.2-0.2-0.3c-0.1-0.1-0.2-0.2-0.2-0.3c0,0,0-0.1,0.1-0.2
	c-0.3-0.2-0.6-0.4-0.9-0.7c-0.4-0.3-0.7-0.4-1.1-0.5c-0.5,0.1-1.2,0.1-2.2,0.1c-1,0-1.7,0.1-2.2,0.1c-1.3,0.1-2.3,0.5-3.1,1
	c-0.3,0.4-0.5,0.6-0.7,0.7c-0.1,0.6-0.2,1.3-0.2,2.1c0,0.5,0.1,1.3,0.2,2.3c0.1,1,0.2,1.8,0.3,2.2l-0.1,0.2c0.5,3.9,0.9,7.3,1,10.1
	l0.2,0.1c-0.1,0.2-0.2,0.3-0.1,0.5c0,0.2,0.2,0.5,0.4,0.7c0.3,0.4,0.5,0.6,0.5,0.7c1.1,0.6,2.5,0.8,4.3,0.6c0.9-0.1,2.3-0.4,4-0.8
	c0.9-0.7,1.4-1.2,1.4-1.6C574.1,206.5,574.1,205.3,573.9,203.8 M563.9,189.9l0.1-0.1l0.2,0L563.9,189.9z M566.1,196.2
	c-0.3-0.1-0.4-0.1-0.4-0.1c-0.1-0.2-0.1-0.2,0.1-0.3c0.2,0,0.4,0,0.5,0.2C566.3,196.2,566.2,196.2,566.1,196.2 M569.2,207
	c-1,0-1.5-0.3-1.5-0.8l-0.9-10l-0.2-0.1l0.2-0.3c-0.1-0.3-0.2-1.7-0.3-4.1c0.4-0.2,0.7-0.4,0.9-0.4c0.6,0.2,0.9,0.5,0.9,1
	c0,0.1,0,0.3,0,0.6c0,0.2,0,0.4,0,0.6c0,0.3,0.1,0.6,0.3,0.8c-0.2,1-0.2,1.7,0.1,2.2l-0.1,0.4c0,0.8,0.1,1.9,0.2,3.1
	c0.2,1.1,0.3,2.1,0.5,3.2l-0.1,0.2c0.1,0.6,0.2,1.3,0.3,1.9C569.7,206,569.5,206.5,569.2,207 M572.2,190.6l-0.1-0.5l0.1,0
	L572.2,190.6L572.2,190.6z"/>
<path class="st3" d="M578.4,187.8l-0.2,0l0.3,0.1C578.4,187.9,578.4,187.8,578.4,187.8"/>
<path class="st3" d="M587.4,201.4c-0.6-7.2-1.1-11.5-1.4-13.2c-0.2-0.1-0.4-0.3-0.5-0.6c-0.2-0.3-0.4-0.5-0.7-0.6
	c-0.3-0.2-0.5-0.2-0.7-0.2c-0.2,0-0.5,0.2-0.8,0.5c-0.3,0.3-0.6,0.5-0.7,0.5c-0.2,0-0.3,0-0.5-0.1c0.1,0.1,0.2,0.2,0.3,0.2
	c-0.1,0.1-0.2,0.2-0.3,0.3c-0.1,0.1-0.2,0.1-0.3,0.1c-0.1,0-0.2-0.1-0.3-0.1l-1.7,0.1c-0.3,0.3-0.8,0.4-1.3,0.5
	c0.1-0.2,0.2-0.3,0.1-0.3c-0.1,0-0.2,0-0.3,0.1c-0.1,0.1-0.2,0-0.3-0.1c-0.1-0.1-0.1-0.1,0-0.2c0.1-0.1,0.1-0.2,0.1-0.2
	c-0.2,0-0.3,0.1-0.3,0.1c-0.2-0.3-0.6-0.4-1-0.4c0,0-0.5,0-1.3,0.1c0,1.3,0.1,3.1,0.3,5.2c0.1,1.5,0.2,2.6,0.3,3.4l0.9,8.1l-0.1,0.1
	l0.3,0c0.1,0.1,0.1,0.1,0.1,0.2c0,0.1-0.1,0.2-0.2,0.3c-0.1,0.1-0.2,0.2-0.1,0.3c0,1.6,0.2,2.8,0.5,3.7l4.2-0.4l0.3-0.2l-1.2-11.2
	l-0.7-6.6c0.1-0.6,0.5-0.9,1.1-0.9c0.2,0,0.4,0,0.5,0.1c0.2,0.1,0.3,0.2,0.5,0.4c0.2,1,0.3,2.4,0.4,4.3c0.1,1.9,0.3,3.3,0.4,4.3
	c0.1,0.3,0.2,0.7,0.2,1.3c0,0.6,0.1,1,0.2,1.3c0,1.3,0.2,3.6,0.6,7l4.3-0.4L587.4,201.4z M580.5,188.7c-0.2,0-0.2,0-0.3,0l0.2-0.3
	c0,0,0.1,0.1,0.2,0C580.5,188.6,580.5,188.7,580.5,188.7 M581.7,188.4l0-0.1l0.2,0l0,0.1L581.7,188.4z M583.8,190.4l-0.2-0.2
	c0.2,0,0.3,0,0.4,0L583.8,190.4z"/>
<path class="st3" d="M598.5,197.8c-0.4-3.8-0.7-7-1-9.8l-3.4,0.3c-0.2,0.3-0.3,0.5-0.3,0.7l-0.3,0c-0.6-0.4-1.4-0.5-2.3-0.4
	c-0.4,0-0.8,0.1-1.2,0.3c-0.9,0.4-1.4,1.2-1.3,2.2c0.1,0.9,0.2,1.8,0.3,2.6l0.1-0.1c0,0,0.2,0.1,0.5,0.2l0.2-0.2
	c0.1,0,0.1,0.1,0.2,0.2c0,0.1,0,0.1,0,0.2c0,0.1-0.1,0.2-0.2,0.2c-0.1,0-0.2,0-0.4-0.1c-0.2-0.1-0.3-0.1-0.4-0.1
	c0.2,1,0.3,2.5,0.5,4.5c0.1,1.9,0.3,3.4,0.5,4.5c0,1.4,0.3,2.2,1.1,2.5c0.3,0.5,1.1,0.6,2.4,0.4c0.1-0.1,0.3-0.2,0.7-0.3
	c0.3-0.1,0.6-0.2,0.7-0.4c0.4-0.2,0.7-0.2,0.8-0.1c0.1,0.8,0.1,1.3,0.2,1.4c0,0.4-0.2,0.7-0.5,1c-2.2,0.3-3.8,0.5-4.8,0.6l0.2,2.2
	c0.5-0.1,1.8-0.2,3.8-0.4c1.6-0.1,2.8-0.3,3.7-0.6c1-0.6,1.4-1.2,1.3-2C599.4,207.6,599.2,204.4,598.5,197.8 M590.7,194.2
	c0.1-0.1,0.2-0.1,0.3-0.1l0,0.1L590.7,194.2z M591.3,193.9c-0.1-0.1-0.1-0.1,0-0.2c0.1,0,0.2,0,0.2,0l0,0.1L591.3,193.9z
	 M594.7,203.5c-0.4,0.1-0.7,0-1-0.4c-0.1-0.9-0.4-4-0.9-9.1c0-0.2,0-0.5-0.1-0.9c-0.1-0.5-0.2-0.9-0.2-1c-0.1-0.6,0.1-1,0.4-1.3
	c0.3-0.1,0.6,0,1.1,0.1l0.4,3.8l0.2,0.1c-0.2,0.1-0.2,0.3-0.1,0.5c0.1,0.3,0.1,0.5,0.1,0.6c0.1,0.9,0.3,2.1,0.4,3.5
	c0.2,2.2,0.2,3.5,0.3,3.6C595.2,203.1,595,203.3,594.7,203.5"/>
<path class="st3" d="M613,198.3c-0.2,0-0.6,0-1.4,0.1c-0.6,0.1-1,0.1-1.3-0.1c-0.2-0.5-0.3-1.2-0.3-2c0-0.8-0.1-1.5-0.2-1.8
	c0-0.1,0-0.3-0.1-0.7c-0.1-0.3-0.1-0.5,0-0.6c0-0.2-0.1-1.2-0.3-3.2c-0.1-1.4-0.3-2.4-0.5-3.3c0-0.2,0-0.4,0-0.6
	c0-0.3-0.1-0.4-0.1-0.6c0.1-0.5,0.1-1.1,0-1.7c0-0.3-0.1-0.9-0.3-2c-0.1-0.8-0.2-1.5-0.2-2c-1,0-2.3,0.1-4.1,0.4
	c0,0.5,0,1.1,0.1,1.9c0.2,1.1,0.3,1.7,0.3,1.7l1.6,16.8c0,0.1,0.1,0.1,0.2,0.1c0.1,0,0.1,0,0.2-0.1c0.1-0.1,0.2-0.1,0.2-0.1
	c0.1,0,0.1,0,0.2,0.1l-0.2,0.2c-0.3,0-0.4,0-0.5,0l0,0.6c2.3-0.1,4.2-0.4,5.8-0.7l0.1,0.1c0.5,0.1,0.8,0,1-0.2L613,198.3z"/>
<path class="st3" d="M624.8,183.7c0,0.2,0.1,0.4,0.1,0.6C624.8,183.7,624.8,183.5,624.8,183.7"/>
<path class="st3" d="M625.9,194.2c-0.2-2.6-0.4-4.4-0.6-5.6c-0.3-2.9-0.5-4.5-0.5-4.9c-0.2-1.4-0.5-2.6-0.9-3.5
	c-0.5-0.6-1.2-0.9-2-1.1c-2.9,0.2-4.1,0.3-3.8,0.2c-1.5,0.2-2.7,0.5-3.7,1c-0.1,0.2-0.2,0.4-0.6,0.7c-0.3,0.3-0.5,0.5-0.5,0.7
	c0.1,0,0.2,0.1,0.2,0.1c0,0,0,0.1-0.1,0.2c-0.1,0.1-0.1,0.2-0.1,0.3c0.1,2,0.2,3.5,0.3,4.4l0.2,0.2c0.4-0.1,1.2-0.1,2.2-0.2
	c0.9-0.1,1.6-0.2,2-0.3c0.1-0.4,0-1-0.1-1.8c-0.1-0.8-0.2-1.4-0.1-1.8l0.6-0.6c0.1-0.1,0.3-0.1,0.4-0.1c0.4,0,0.7,0.1,1,0.5l0.6,4.4
	l-0.4,0.6l-4.5,3.1c-1,0.7-1.4,1.7-1.3,3c0,0.3,0.1,0.7,0.2,1.3c0.1,0.6,0.2,1,0.2,1.3c0,0.3,0,0.5,0,0.7c0,0,0,0.5,0.1,1.3
	c0.1,0.5,0.2,1,0.3,1.3c0.1,0.1,0.2,0.2,0.4,0.5c0.1,0.2,0.3,0.3,0.5,0.4c0.1,0.1,0.1,0.1,0.1,0.2c0.6,0.2,1,0.4,1.2,0.6
	c0.7,0,1.3,0,1.7,0c0.9-0.1,1.5-0.4,1.9-0.8c0.1-0.1,0.2-0.1,0.3-0.1c0.2,0,0.4,0.1,0.8,0.5c1.3,0,2.7-0.2,4.3-0.6
	C626.3,198.8,626.1,196.9,625.9,194.2 M615,184l-0.2,0c0-0.1,0-0.1,0-0.2c0,0,0.1-0.1,0.2-0.1C615.1,183.9,615.1,184,615,184
	 M616.4,181.8c-0.1,0.1-0.2,0.1-0.3,0c-0.1-0.1-0.1-0.1-0.1-0.2l0.4,0C616.4,181.7,616.4,181.8,616.4,181.8 M615.9,197.6l0.1-0.2
	l0.1,0.1C616.1,197.6,616,197.6,615.9,197.6 M616.5,192.6L616.5,192.6c-0.1-0.1,0-0.1,0.1-0.2C616.6,192.5,616.6,192.6,616.5,192.6
	 M621.4,197.8c-0.7,0.2-1.1,0.2-1.3,0.2l-0.5-0.4c0-0.1-0.2-1.1-0.4-2.9c-0.2-1-0.2-2-0.2-2.8c0.2-0.4,0.6-0.8,1.2-1.1
	c0.2,0,0.3,0.1,0.4,0c0.1,0.1,0.2,0.3,0.2,0.7c0,0.3,0.2,0.5,0.4,0.6c-0.2,0.1-0.3,0.2-0.3,0.3c0.3,1.6,0.5,3.2,0.5,4.9
	C621.4,197.6,621.4,197.8,621.4,197.8 M625.4,196.7c-0.1,0.2-0.2,0.3-0.4,0.3c-0.2,0-0.3-0.1-0.3-0.2c-0.1-0.1-0.1-0.1-0.1-0.1
	c0-0.2,0.2-0.4,0.7-0.5C625.5,196.4,625.5,196.6,625.4,196.7"/>
<path class="st3" d="M638.8,193.3c-0.3-2.3-0.4-3.6-0.4-3.8c-0.5-0.8-1.5-1.5-2.9-2.1c-2.4-0.9-3.6-1.4-3.7-1.4
	c-0.4-1.8-0.6-3.1-0.6-4l0.2-0.8c0.4-0.3,0.7-0.5,1.1-0.5c0.6,0.3,0.9,0.9,1,1.8c0,0.2,0,0.5,0,1c0,0.5,0,0.8,0.1,1l0.2,0.4l4.1-0.5
	c-0.1-0.9-0.1-1.7-0.2-2.6c-0.1-0.9-0.2-1.8-0.5-2.6c-0.7-0.6-1.2-1-1.6-1.1c-0.4,0-1.2,0-2.4,0c-1,0-1.7,0-2.3,0.1
	c-1.4,0.1-2.5,0.5-3.4,1.2c0,0.2-0.2,0.4-0.5,0.7c-0.3,0.3-0.4,0.5-0.4,0.7c0,2.3,0.2,4,0.7,5.3c-0.2,0-0.3,0.1-0.3,0.2
	c0,0,0.1,0.1,0.1,0.2c0,0.1,0,0.2,0,0.3c0.1,0.7,0.6,1.3,1.5,1.7c0.4,0.2,1.2,0.5,2.5,0.9c0.1,0,0.4,0.1,0.7,0.3
	c0.3,0.2,0.6,0.3,0.8,0.3c0.8,0.1,1.3,0.5,1.4,1.2c0.1,0.6,0.1,1.2,0.2,1.8c-0.2,0.3-0.2,0.6,0.2,0.8c-0.1,0.2,0,0.6,0,1.1
	c0.1,0.5,0.1,0.9,0,1.2c-0.2,0.3-0.5,0.5-0.8,0.6c-0.8,0-1.2-0.4-1.3-1.2c-0.1-0.6-0.1-1.2-0.1-1.8c-0.1-0.1-0.1-0.2-0.1-0.3
	c0-0.1,0-0.3,0-0.5c0-0.2,0.1-0.4,0-0.5c0-0.3-0.2-0.4-0.4-0.6l-3.6,0.4l-0.5,0.2l0.1,2.3c0.1,1,0.3,1.9,0.5,2.9
	c0.3,1.1,1.1,1.7,2.3,1.8c0.4,0.2,1.4,0.2,2.8,0c1.1,0,1.8-0.1,2.3-0.3c1.7-0.1,2.7-0.7,3.3-1.9C639,196.1,638.9,194.8,638.8,193.3"
	/>
<path class="st3" d="M647.4,196.1c0-0.2-0.1-0.3-0.4-0.3c0,0-0.2,0-0.7,0.1c-0.3,0-0.5,0-0.6-0.1c-0.2-0.4-0.4-0.8-0.5-1.3
	c-0.1-0.5-0.1-0.9-0.1-1.4l0.1-0.3c-0.1-0.7-0.3-2.6-0.6-5.7l0,0c-0.1-0.6-0.2-1.2-0.3-1.9c-0.1-0.6-0.1-1.2-0.1-1.8
	c0.1-0.2,0.3-0.3,0.7-0.4c0.3,0,0.6-0.1,0.9-0.1c0.1-0.6,0.1-1.1,0.1-1.4c0.1-0.2,0.1-0.3,0.1-0.4c0-0.2-0.3-0.3-0.9-0.3
	c-0.6,0-0.9,0-1.1-0.2c-0.3-1.6-0.4-2.9-0.5-3.7l-3.3,0.3l-0.1,0.1c0,0.2,0.1,0.7,0.1,1.4c0,0.5,0.1,1,0.2,1.3
	c0.3,0.9,0,1.5-0.9,1.6c0,0.1,0,0.4,0,0.7c0,0.4,0,0.7,0,0.8c0.1,0.5,0.4,0.7,1,0.6c0.3,0.8,0.4,1.4,0.4,1.9c0,0,0.1,0.1,0.1,0.2
	c0.1,0.1,0.1,0.1,0,0.2l0.6,7c0.2,2.2,0.4,3.7,0.7,4.4c0.4,0.7,1.2,1,2.3,1c1-0.1,2-0.2,2.9-0.3L647.4,196.1z"/>
<path class="st3" d="M650.4,174.7l-3.5,0.3l-0.2,0.2l0.3,2.1c1.6-0.1,2.7-0.2,3.5-0.3L650.4,174.7z"/>
<path class="st3" d="M652.4,194.5c0-0.6-0.1-1.1-0.2-1.4l-1.5-14.3l-2.2,0.1c-0.1,0.1-0.3,0.2-0.7,0.1c-0.3,0-0.6,0-0.7,0.1
	c0.7,7.6,1.3,13.3,1.8,17.1l3.6-0.4C652.5,195.6,652.4,195.1,652.4,194.5 M648.5,187.8c0.1-0.1,0.1-0.2,0.2-0.2c0.1,0,0.2,0,0.3,0.2
	c0,0,0,0.1-0.1,0.1c-0.1,0.1-0.1,0.1-0.1,0.1c0,0,0,0,0,0l-0.5,0C648.4,188,648.4,187.9,648.5,187.8 M650.2,186.9L650.2,186.9
	l-0.3-0.1C650,186.8,650.1,186.8,650.2,186.9 M650,188.2C650,188.2,650,188.2,650,188.2c-0.1-0.1,0-0.2,0.1-0.3l0.2,0
	C650.3,188.1,650.2,188.2,650,188.2"/>
<path class="st3" d="M664.7,189.6c-0.6-7.2-1.1-11.5-1.4-13.2c-0.2-0.1-0.4-0.3-0.5-0.6c-0.2-0.3-0.4-0.5-0.7-0.6
	c-0.3-0.2-0.5-0.2-0.7-0.2c-0.2,0-0.5,0.2-0.8,0.5c-0.3,0.3-0.6,0.5-0.7,0.5c-0.2,0-0.3,0-0.5-0.1c0.1,0.1,0.2,0.2,0.3,0.2
	c-0.1,0.1-0.2,0.2-0.3,0.3c-0.1,0.1-0.2,0.1-0.3,0.1c-0.1,0-0.2-0.1-0.3-0.1l-1.7,0.1c-0.3,0.3-0.8,0.4-1.3,0.5
	c0.1-0.2,0.2-0.3,0.1-0.3c-0.1,0-0.2,0-0.3,0.1c-0.1,0.1-0.2,0-0.3-0.1c-0.1-0.1-0.1-0.1,0-0.2c0.1-0.1,0.1-0.2,0.1-0.2
	c-0.2,0-0.3,0.1-0.3,0.1c-0.2-0.3-0.6-0.4-1-0.4c0,0-0.5,0-1.3,0.1c0,1.3,0.1,3.1,0.3,5.2c0.1,1.5,0.2,2.6,0.3,3.4l0.9,8.1l-0.1,0.1
	l0.3,0c0.1,0.1,0.1,0.1,0.1,0.2c0,0.1-0.1,0.2-0.2,0.3c-0.1,0.1-0.2,0.2-0.1,0.3c0,1.6,0.2,2.8,0.5,3.7l4.2-0.4l0.3-0.2l-1.2-11.2
	l-0.7-6.6c0.1-0.6,0.5-0.9,1.1-0.9c0.2,0,0.4,0,0.5,0.1c0.2,0.1,0.3,0.2,0.5,0.4c0.2,1,0.3,2.4,0.4,4.3c0.1,1.9,0.2,3.3,0.4,4.3
	c0.1,0.3,0.2,0.7,0.2,1.3c0,0.6,0.1,1,0.2,1.3c0,1.3,0.2,3.6,0.6,7l4.3-0.4L664.7,189.6z M657.8,177c-0.2,0-0.2,0-0.3,0l0.2-0.3
	c0,0,0.1,0.1,0.2,0C657.8,176.8,657.8,176.9,657.8,177 M659,176.7l0-0.1l0.2,0l0,0.1L659,176.7z M661.2,178.6l-0.2-0.2
	c0.2,0,0.3,0,0.4,0L661.2,178.6z"/>
<path class="st3" d="M655.7,176l-0.2,0l0.3,0.1C655.7,176.1,655.7,176.1,655.7,176"/>
<path class="st3" d="M675.9,186.1c-0.4-3.8-0.7-7-1-9.8l-3.4,0.3c-0.2,0.3-0.3,0.5-0.3,0.7l-0.3,0c-0.6-0.4-1.4-0.5-2.3-0.4
	c-0.4,0-0.8,0.2-1.2,0.3c-0.9,0.4-1.4,1.2-1.3,2.2c0.1,0.9,0.2,1.8,0.3,2.6l0.1-0.1c0,0,0.2,0.1,0.5,0.2l0.2-0.2
	c0.1,0,0.1,0.1,0.2,0.2c0,0.1,0,0.1,0,0.2c0,0.1-0.1,0.2-0.2,0.2c-0.1,0-0.2,0-0.4-0.1c-0.2-0.1-0.3-0.1-0.4-0.1
	c0.2,1,0.3,2.5,0.5,4.5c0.1,1.9,0.3,3.4,0.5,4.5c0,1.4,0.3,2.2,1.1,2.5c0.3,0.5,1.1,0.6,2.4,0.4c0.1-0.1,0.3-0.2,0.7-0.3
	c0.3-0.1,0.6-0.2,0.7-0.4c0.4-0.2,0.7-0.2,0.8-0.1c0.1,0.9,0.1,1.3,0.2,1.4c0,0.4-0.2,0.7-0.5,1c-2.2,0.3-3.8,0.5-4.8,0.6l0.2,2.2
	c0.5-0.1,1.8-0.2,3.8-0.4c1.6-0.1,2.8-0.3,3.7-0.6c1-0.6,1.4-1.2,1.3-2C676.8,195.8,676.5,192.7,675.9,186.1 M668,182.4
	c0.1,0,0.2-0.1,0.3-0.1l0,0.1L668,182.4z M668.6,182.2c-0.1-0.1-0.1-0.1,0-0.2c0.1,0,0.2,0,0.2,0l0,0.1L668.6,182.2z M672.1,191.7
	c-0.4,0.1-0.7,0-1-0.4c-0.1-0.9-0.4-4-0.9-9.1c0-0.2,0-0.5-0.1-0.9c-0.1-0.5-0.2-0.9-0.2-1c-0.1-0.6,0.1-1,0.4-1.3
	c0.3-0.1,0.6,0,1.1,0.1l0.4,3.8l0.2,0.1c-0.2,0.1-0.2,0.3-0.1,0.5c0.1,0.3,0.1,0.5,0.1,0.6c0.1,0.9,0.3,2.1,0.4,3.5
	c0.1,2.2,0.2,3.5,0.3,3.6C672.5,191.4,672.4,191.6,672.1,191.7"/>
<path class="st3" d="M694.6,191.1c0-0.3,0-0.6,0-0.8c0-0.2-0.1-0.5,0-1c0-0.4-0.1-0.7-0.3-0.9c-0.3,0.1-1,0.1-2.1,0.2
	c-0.8,0-1.5,0.1-1.9,0.3c0.3,2.8,0.5,4.3,0.5,4.6c0,0.3,0,0.6-0.1,0.9c0,0.3-0.2,0.5-0.6,0.7c-0.5,0.1-1,0-1.4-0.3
	c-0.2-1.6-0.7-5.8-1.4-12.6c-0.1-0.6-0.2-1.2-0.2-1.9c-0.1-0.8,0.3-1.3,1.1-1.4c0.3,0,0.6,0.1,0.9,0.5l0.4,3.7l0.2,0.4l4-0.5
	c-0.1-2.5-0.4-4.2-0.6-5.2c-0.2-0.8-1-1.4-2.2-1.6c-0.3,0-1,0-2,0.1c-0.8,0-1.5,0.1-2,0.1c-1.6,0.2-2.9,0.6-3.7,1.3
	c-0.5,0.5-0.7,1.4-0.5,2.8c0.7,7,1.3,12.2,1.7,15.6c0.3,1,1,1.6,2.3,1.8c3-0.1,5.1-0.3,6.5-0.7c0.1-0.1,0.1-0.1,0.2-0.2
	c0.1-0.1,0.2-0.1,0.3-0.1c0.6-0.6,1-1.1,1.2-1.5C694.9,194.3,694.8,192.9,694.6,191.1 M684.2,182.5l0-0.2c0.1-0.1,0.2,0,0.3,0.1
	C684.4,182.4,684.3,182.5,684.2,182.5 M684.4,186.6c0,0,0.1,0,0.1,0c0,0,0.1,0,0.1,0L684.4,186.6z M685.1,182.7
	c-0.1-0.1-0.1-0.1,0-0.2c0.1,0,0.1,0,0.2,0l0,0.1L685.1,182.7z M685.9,195.5l-0.2,0l0.3-0.1C685.9,195.4,685.9,195.5,685.9,195.5
	 M691.1,192.3c-0.1-0.1-0.2-0.2-0.1-0.2c0,0,0,0,0.1,0.1c0.1,0,0.1,0,0.1,0.1C691.1,192.2,691.1,192.3,691.1,192.3"/>
<path class="st3" d="M704.8,181.9c-0.1-0.6-0.2-1.1-0.3-1.7c-0.2-0.7-0.6-1.1-1.2-1.4c-0.8-0.3-1.6-0.4-2.3,0
	c-0.2,0-0.4,0.2-0.7,0.4c-0.3,0.2-0.5,0.3-0.7,0.3c-0.1,0-0.2,0-0.2,0c-0.3-1.9-0.5-3.4-0.5-4.4c-1.6,0-2.8,0.1-3.6,0.2l1.6,16.8
	c0.1,0.6,0.2,1.1,0.2,1.5l0.3,0.2c-0.1,0.1-0.2,0.1-0.3,0.1l0.2,2.5l0.2,0.1c0.2,0,0.8-0.1,1.8-0.1c0.7,0,1.3-0.1,1.7-0.3l-1.4-14.5
	l0.4-0.5c0.4-0.2,0.8-0.2,1.1,0.1c0.6,4.2,1,7.3,1.2,9.4l-0.1,0.1c0.1,0.5,0.2,1.4,0.3,2.7c0,1.2,0.2,2.1,0.3,2.6
	c0.6,0,1.2-0.1,1.8-0.1c0.6-0.1,1.2-0.1,1.8-0.2L704.8,181.9z"/>
<path class="st3" d="M718.7,186.9l-3.9,0.3l-0.4,0.2l0.4,3.7l-0.3,0.9c-0.2,0.2-0.5,0.3-1,0.2l-0.5-0.2c-0.2-0.1-0.3-0.2-0.3-0.3
	c-0.3-1.6-0.6-3.7-0.7-6.4c0.1-0.2,0.2-0.4,0.5-0.4c0.2,0,0.5,0,0.7-0.1c-0.1-0.1-0.1-0.1-0.1-0.1c0.1-0.1,0.2-0.2,0.4-0.2
	c0.1,0,0.2,0.1,0.2,0.2l4.7-0.5c0.1-0.9,0-1.9-0.1-3.2c-0.2-2.1-0.3-3.1-0.3-3.2c0-0.1,0-0.1-0.1-0.2c-0.1-0.1-0.1-0.2-0.1-0.2
	c0,0,0-0.1,0.1-0.2c-0.3-1.5-0.6-2.5-0.9-2.9c-0.2-0.3-0.5-0.6-1.1-0.7c-0.2-0.1-0.7-0.2-1.4-0.3c-0.9,0-1.5,0.1-1.6,0.4
	c-0.3,0.1-0.5,0-0.5-0.1c-2,0.2-3.4,0.4-4.1,0.7c-1.2,0.4-1.8,1.2-1.8,2.4c0.2,2.8,0.5,5.7,0.8,8.6c0.3,3.3,0.7,6.1,1.2,8.5
	c0.2,0,0.3,0.1,0.3,0.3c0.6,0.8,1.7,1.2,3.3,1.2c1.4-0.1,2.8-0.3,4.2-0.4l-0.3,0c0.2,0,0.3-0.1,0.2-0.2c0-0.1,0.1-0.2,0.2-0.2
	c0.1,0,0.2,0.1,0.1,0.2l-0.1,0.3c0.8-0.2,1.4-0.5,1.8-0.8c0.1-0.2,0.2-0.5,0.4-0.7c0.2-0.2,0.4-0.4,0.6-0.6
	C719.1,189.7,719,187.8,718.7,186.9 M709,177.6c0,0.1,0,0.2-0.1,0.2l-0.1-0.2L709,177.6z M708.6,179.6l0,0.1l-0.3,0
	C708.4,179.6,708.4,179.6,708.6,179.6 M708.1,186.1c0-0.1,0-0.2,0-0.3c0.3,0.1,0.4,0.2,0.4,0.4l0.4,0.1c-0.1,0-0.2,0-0.3,0
	C708.3,186.3,708.1,186.2,708.1,186.1 M710,185.7c0.1-0.1,0.3-0.2,0.4-0.2C710.2,185.6,710,185.7,710,185.7 M711.6,181.7
	c0-0.3-0.1-0.8-0.2-1.6c-0.1-0.7-0.2-1.3-0.2-1.7c0-0.6,0-1.2,0.1-1.6c0.2-0.3,0.4-0.4,0.7-0.4c0.6-0.1,1,0.2,1.3,0.7l-0.1,0.1
	l0.3,2.6l0.1,0c-0.1,0.1-0.1,0.3-0.1,0.6c0,0.1,0,0.2,0,0.4c0,0.2,0.1,0.3,0.1,0.4c0.1,0.5-0.3,0.8-0.9,0.9
	C712,182.3,711.6,182.1,711.6,181.7 M716.8,189.8l0.3-0.2l0,0.3C717,189.9,716.9,189.9,716.8,189.8"/>
<path class="st3" d="M737.1,188.1c0-2,0.1-3.5,0.3-4.5c0-0.4,0-1,0.1-2c0.1-0.9,0.1-1.6,0-2.1l0.2-0.1c0-0.4,0-1.1,0.1-2.1
	c0.1-0.9,0.1-1.6,0-2c0.2-1.7,0.2-3,0.2-3.9l-4.4,0.4l-0.2,0.2c0,1.9,0,3.3,0.1,4.3c0,1.1,0,2.3,0,3.4c0,1.2-0.1,2.3-0.3,3.3
	c-0.2,0-0.4,0-0.4-0.1c-0.3-1-0.5-2-0.5-3c-0.7-3.4-1.3-6-1.7-7.8l-3.6,0.4l0,1.3c-0.2,1.5-0.3,3.7-0.2,6.4c0,0.1-0.1,0.1-0.1,0.2
	c0,0.1,0,0.1,0.1,0.1c-0.1,0.2-0.1,0.4-0.2,0.7c0,0.4,0.1,0.9,0.1,1.3c0,0.6-0.1,1-0.3,1.3c-0.2,0-0.3-0.1-0.3-0.2
	c-0.1-0.2-0.1-0.4-0.1-0.6c-0.8-4.5-1.4-7.9-1.9-10.2l-0.2-0.1l-4.5,0.5c0,1,0.4,2.6,1,4.9c1.2,4.6,2.1,8,2.8,10.4
	c0.2,0.5,0.4,1.4,0.7,2.8c0.2,1.2,0.5,2.2,0.9,2.8l4.7-0.4c0-2.3,0-4,0.1-5.2c0.1-0.4,0.1-1.2,0-2.3c-0.1-1,0-1.8,0.3-2.2l0.4,0.2
	c0.2,0.6,0.5,1.6,0.7,2.9c0.2,1.3,0.4,2.3,0.6,2.9c0.4,1,0.6,2.1,0.8,3.2l0.2,0.2l4.1-0.4l0.4-0.3
	C737,191.8,737.1,190.3,737.1,188.1"/>
<polygon class="st3" points="742,172.4 740.7,172.5 740.6,171.1 744.7,170.7 744.9,172.1 743.5,172.2 744.1,178.5 742.6,178.6 "/>
<path class="st3" d="M750.6,175.2c-0.1-0.7-0.2-1.7-0.3-2.5l0,0c-0.1,0.8-0.2,1.8-0.3,2.4l-0.4,2.8l-1,0.1l-0.9-2.6
	c-0.2-0.6-0.5-1.5-0.7-2.3l0,0c0.1,0.8,0.1,1.8,0.1,2.5l0.1,2.6l-1.3,0.1l-0.2-7.6l1.6-0.1l0.9,2.7c0.3,0.9,0.6,1.8,0.8,2.6l0,0
	c0-0.9,0.1-1.7,0.2-2.7l0.3-2.8l1.6-0.1l1.2,7.5l-1.3,0.1L750.6,175.2z"/>
</svg>
